<svg xmlns="http://www.w3.org/2000/svg" width="193" height="26" fill="none" viewBox="0 0 193 26"><path fill="#000" d="M192.144 19.552h-5.694V10.14h-3.692l-.026.806a37 37 0 0 1-.104 2.21q-.051.936-.26 2.028-.884 4.758-7.202 4.758v-4.134q1.223-.156 1.664-.754.442-.624.442-1.924V5.226l14.872.026zm-29.76-6.63q.208 1.145 1.014 1.872.833.702 2.34.702 1.092 0 2.054-.416.963-.441 1.534-1.222 1.743.858 4.628 1.846-.805 1.82-2.938 2.912-2.106 1.066-5.512 1.066-4.419 0-6.552-2.028-2.106-2.054-2.106-5.382 0-3.25 2.106-5.278t6.552-2.028q2.652 0 4.602.884 1.95.885 2.99 2.47 1.04 1.56 1.04 3.588a7 7 0 0 1-.052 1.014zm3.484-4.03q-1.3 0-2.132.494-.831.494-1.17 1.352h6.136a2.77 2.77 0 0 0-1.014-1.326q-.702-.52-1.82-.52m-15.018 3.484q4.446 0 4.446 2.834 0 2.028-1.56 3.12-1.535 1.092-5.564 1.092h-8.788q.13-2.964.13-7.098t-.13-7.098h5.382v.026h3.38q2.444 0 3.822.416 1.404.39 1.976 1.144t.572 1.924q0 2.625-3.666 3.64m-6.084-3.562v1.82h1.976q1.195 0 1.69-.208.494-.233.494-.806 0-.441-.52-.624-.495-.182-1.664-.182zm1.976 7.02q1.482 0 2.028-.208.546-.233.546-.806 0-.494-.572-.728-.573-.234-2.002-.234h-1.976v1.976zM128.754 4.992q4.42 0 6.604 2.054 2.21 2.028 2.21 5.46t-2.21 5.304q-2.184 1.872-6.604 1.872-2.678 0-4.966-.91-2.262-.935-3.224-3.302 2.756-1.195 4.082-1.924.468.989 1.404 1.482.961.494 2.574.494 3.094 0 4.004-1.586h-6.786V10.66h6.656q-.936-1.508-3.614-1.508-1.222 0-2.47.468-1.222.468-1.768 1.404-2.392-1.221-4.108-1.82 2.08-4.212 8.216-4.212m-15.688-.026a5.12 5.12 0 0 1 3.042.962q1.351.963 2.106 2.626.754 1.638.754 3.614 0 1.95-.754 3.692-.754 1.717-2.132 2.782-1.352 1.04-3.094 1.04-2.028 0-3.484-.832-1.43-.858-2.132-2.626 0 1.482.104 4.758.104 3.173.104 4.472h-5.876q.156-4.836.156-10.114 0-5.277-.156-10.114h4.992l.754 3.25q.727-1.82 2.184-2.652 1.456-.858 3.432-.858m-2.782 10.036q1.17 0 1.95-.728.806-.753.806-1.95 0-1.326-.728-2.158t-1.976-.832q-1.43 0-2.158.702-.728.676-.728 2.288 0 .91.468 1.534.468.599 1.118.884.65.26 1.248.26M99.612 6.006a317 317 0 0 0-7.93-.156v13.572h-6.5V5.85q-3.873.027-7.904.156V.546h22.334z"/><path fill="#00ceb5" d="M75.076 12.636q1.17.936 1.794 2.106t1.17 2.808q.546 1.431.78 1.872h-6.266q-.078-.181-.312-1.144a12 12 0 0 0-.416-1.534 2.9 2.9 0 0 0-.624-1.04q-.65-.702-1.456-.91-.806-.207-2.392-.208v4.836H61.79q.13-2.964.13-7.098t-.13-7.098h5.564v5.096h.104q3.094-3.093 4.498-5.096h6.864l-6.084 6.058q1.352.572 2.34 1.352m-15.367-7.41a200 200 0 0 0-.13 6.812q0 2.99.13 6.812h-5.33l.286-8.996-3.978 8.996h-7.254a150 150 0 0 0 0-13.624h5.122l-.26 9.23 3.978-9.23zm-35.142.026h16.796v14.3H35.67V10.14h-5.408v9.412h-5.694zM11.038 0q5.875 0 8.658 2.704t2.782 7.358q0 4.629-2.782 7.124t-8.658 2.496q-3.588 0-6.63-1.248T.066 14.04q3.329-1.43 5.46-2.574.599 1.56 1.872 2.288 1.274.702 3.432.702 2.054 0 3.432-.624 1.404-.65 2.002-1.872H7.112V7.592h8.996q-.598-1.118-1.846-1.742-1.223-.65-3.042-.65a8.4 8.4 0 0 0-3.328.702Q6.28 6.604 5.526 8.06 2.38 6.45.04 5.642 2.822 0 11.038 0"/></svg>